<?xml version="1.0" encoding="UTF-8"?>
<svg width="50px" height="50px" viewBox="0 0 50 50" version="1.1" xmlns="http://www.w3.org/2000/svg" xmlns:xlink="http://www.w3.org/1999/xlink">
    <!-- Generator: Sketch 42 (36781) - http://www.bohemiancoding.com/sketch -->
    <title>Group 7</title>
    <desc>Created with Sketch.</desc>
    <defs></defs>
    <g id="Page-1" stroke="none" stroke-width="1" fill="none" fill-rule="evenodd">
        <g id="Desktop" transform="translate(-65.000000, -1339.000000)" fill="#6EC24D">
            <g id="Group-7" transform="translate(65.000000, 1339.000000)">
                <circle id="Oval-4" fill-opacity="0.100000001" cx="25" cy="25" r="25"></circle>
                <g id="Group-3" transform="translate(9.000000, 9.000000)">
                    <path d="M27.3066667,27.3066667 C30.4355556,24.1896296 32,20.4207407 32,16 C32,11.5674074 30.4355556,7.79259259 27.3066667,4.67555556 C24.1896296,1.55851852 20.4207407,0 16,0 C11.5674074,0 7.79259259,1.55851852 4.67555556,4.67555556 C1.55851852,7.79259259 0,11.5674074 0,16 C0,20.4207407 1.55851852,24.1896296 4.67555556,27.3066667 C7.79259259,30.4355556 11.5674074,32 16,32 C20.4207407,32 24.1896296,30.4355556 27.3066667,27.3066667 L27.3066667,27.3066667 Z M16.000249,1.96444444 C19.8747159,1.96444444 23.1765414,3.33512848 25.9057257,6.07649656 C28.6470937,8.80568078 30.0177778,12.1135983 30.0177778,16.000249 C30.0177778,19.8747159 28.6470937,23.1765414 25.9057257,25.9057257 C23.1765414,28.6470937 19.8747159,30.0177778 16.000249,30.0177778 C12.1135983,30.0177778 8.80568078,28.6470937 6.07649656,25.9057257 C3.33512848,23.1765414 1.96444444,19.8747159 1.96444444,16.000249 C1.96444444,12.1135983 3.33512848,8.80568078 6.07649656,6.07649656 C8.80568078,3.33512848 12.1135983,1.96444444 16.000249,1.96444444 L16.000249,1.96444444 Z" id="Shape" fill-rule="nonzero"></path>
                    <path d="M8.00101069,18.8301152 C8.2238681,21.1226981 9.51325743,22.9806455 11.8691787,24.4039575 C13.2063231,25.1490469 14.5859166,25.5120392 16.0079592,25.4929344 C17.4087772,25.5120392 18.7777585,25.1490469 20.114903,24.4039575 C22.4814364,22.9806455 23.7761319,21.1226981 23.9989893,18.8301152 C24.0202138,18.4384656 23.7071522,18.314284 23.0598045,18.4575704 L20.7993936,18.8587725 C19.292453,19.2217648 17.6953082,19.4032609 16.0079592,19.4032609 C14.2993857,19.4032609 12.6916286,19.2217648 11.184688,18.8587725 L8.94019551,18.4575704 C8.29284778,18.314284 7.97978618,18.4384656 8.00101069,18.8301152 L8.00101069,18.8301152 Z" id="Path"></path>
                    <g id="Group-2" transform="translate(8.800000, 9.600000)">
                        <ellipse id="Oval-path" cx="11.7333333" cy="2.13333333" rx="2.13333333" ry="2.13333333"></ellipse>
                        <ellipse id="Oval-path" cx="2.13333333" cy="2.13333333" rx="2.13333333" ry="2.13333333"></ellipse>
                    </g>
                </g>
            </g>
        </g>
    </g>
</svg>